<?xml version="1.0" encoding="utf-8"?>
<!-- Generator: Adobe Illustrator 22.0.0, SVG Export Plug-In . SVG Version: 6.00 Build 0)  -->
<svg version="1.1" id="Capa_1" xmlns="http://www.w3.org/2000/svg" xmlns:xlink="http://www.w3.org/1999/xlink" x="0px" y="0px"
	 viewBox="0 0 78 78" style="enable-background:new 0 0 78 78;" xml:space="preserve">
<style type="text/css">
	.st0{fill:#00335E;}
</style>
<path class="st0" d="M73.4,4H6C3.1,4,0,5.9,0,8.8v48.4C0,60.1,3.1,64,6,64h25.9c0,0,1,9-8.4,9v2.3h31.3v-2.3c-9.6,0-7.1-9-7.1-9h26
	c2.9,0,4.5-3.9,4.5-6.9V8.8C78,5.9,76.3,4,73.4,4z M39.7,60.2c-1.6,0-3-1.4-3-3c0-1.7,1.3-3,3-3c1.6,0,3,1.4,3,3
	C42.6,58.8,41.3,60.2,39.7,60.2z M74.2,51.7H3.6V7.7h70.5V51.7z"/>
<g>
	<polygon class="st0" points="59.8,39.3 64.4,36.7 49.7,32.3 54,47 56.9,42.4 62.4,47.9 65.3,44.7 	"/>
	<path class="st0" d="M19,39V23.5h36v7.8h3V17.7c0-2.5-2-4.5-4.5-4.5h-33c-2.5,0-4.5,2-4.5,4.5V39c0,2.5,2,4.5,4.5,4.5h29.2v-3H20.5
		C19.7,40.5,19,39.8,19,39z"/>
</g>
</svg>
