<?xml version="1.0" encoding="utf-8"?>
<!-- Generator: Adobe Illustrator 22.0.0, SVG Export Plug-In . SVG Version: 6.00 Build 0)  -->
<svg version="1.1" id="Capa_1" xmlns="http://www.w3.org/2000/svg" xmlns:xlink="http://www.w3.org/1999/xlink" x="0px" y="0px"
	 viewBox="0 0 78 78" style="enable-background:new 0 0 78 78;" xml:space="preserve">
<style type="text/css">
	.st0{fill:#00335E;}
</style>
<path class="st0" d="M45.8,24.4c8.1,3.8,11.5,13.3,7.8,21.4c-3.8,8.1-13.3,11.5-21.4,7.8c-8.1-3.8-11.5-13.3-7.8-21.4
	C28.2,24.1,37.7,20.6,45.8,24.4z M28.3,57.4c10.2,5.9,23.2,2.4,29.1-7.8c5.9-10.2,2.4-23.2-7.8-29.1c-10.2-5.9-23.2-2.4-29.1,7.8
	C14.6,38.5,18.1,51.6,28.3,57.4L28.3,57.4z"/>
<path class="st0" d="M69,51.8l7.1-0.3c1-3,1.7-6.1,1.9-9.2l-6.4-3.1c0-1.4-0.1-2.8-0.2-4.2l6-3.8c-0.6-3.1-1.6-6.1-2.9-8.9l-7,0.5
	c-0.7-1.2-1.4-2.4-2.3-3.5l3.3-6.2l0,0c-2-2.3-4.4-4.4-7-6.3l-5.8,4c-0.9-0.5-1.8-1-2.7-1.4c-0.3-0.2-0.7-0.3-1-0.4l-0.3-7.1
	c-3-1-6.1-1.7-9.2-1.9l-3.1,6.4c-1.4,0-2.8,0.1-4.2,0.2l-3.8-6c-3.1,0.6-6.1,1.6-8.9,2.9l0.5,7c-1.2,0.7-2.4,1.4-3.5,2.3l-6.2-3.3
	c-2.3,2-4.4,4.4-6.3,7l4,5.8c-0.5,0.9-1,1.8-1.4,2.7c-0.2,0.3-0.3,0.7-0.4,1l-7.1,0.3c-1,3-1.7,6.1-1.9,9.2l6.4,3.1
	c0,1.4,0.1,2.8,0.2,4.2l-6,3.8c0.6,3.1,1.6,6.1,2.9,8.9l7-0.5c0.7,1.2,1.4,2.4,2.3,3.5l-3.3,6.2c2,2.3,4.4,4.4,7,6.3l5.8-4
	c0.9,0.5,1.8,1,2.7,1.5c0.3,0.2,0.7,0.3,1,0.4l0.3,7.1c3,1,6.1,1.7,9.2,1.9l3.1-6.4c1.4,0,2.8-0.1,4.2-0.2l3.8,6
	c3.1-0.6,6.1-1.6,8.9-2.9l-0.5-7c1.2-0.7,2.4-1.4,3.5-2.3l6.2,3.3c2.3-2,4.4-4.4,6.3-7l-4-5.8c0.5-0.9,1-1.8,1.4-2.7
	C68.7,52.5,68.8,52.1,69,51.8z M58.9,50.5c-6.3,11-20.4,14.8-31.4,8.4c-11-6.3-14.8-20.4-8.4-31.4c6.3-11,20.4-14.8,31.4-8.4
	C61.5,25.4,65.2,39.5,58.9,50.5z"/>
</svg>
